<svg xmlns="http://www.w3.org/2000/svg" viewBox="0 0 34.48 20"><defs><style>.cls-1{fill:#5a5a5a;}</style></defs><title>day_08</title><g id="レイヤー_2" data-name="レイヤー 2"><path class="cls-1" d="M16.24,13.91C16.24,17,14,19.66,10,19.66c-3.3,0-6-1.76-6-5,0-1,.24-3,3.06-4.49C5.56,8.93,4.56,7.81,4.56,5.78,4.56,2.89,6.8.64,10.24.64c2.94,0,5.28,1.75,5.28,4.35A4.2,4.2,0,0,1,13,8.79,5.78,5.78,0,0,1,16.24,13.91ZM11.58,5.16c0-2.06-1-2.65-1.81-2.65A1.56,1.56,0,0,0,8.12,4.18c0,1.36.91,1.94,2.91,3.2A4.29,4.29,0,0,0,11.58,5.16Zm-3.2,9.27c0,.62.1,3.3,2.2,3.3a2.05,2.05,0,0,0,2-2.25c0-1.72-1-2.36-3.3-3.94A4.54,4.54,0,0,0,8.38,14.43Z"/><path class="cls-1" d="M20,15.82a1.4,1.4,0,0,1-1.38-1.44V6.74A1.39,1.39,0,0,1,20,5.3h6.49A1.42,1.42,0,0,1,27.9,6.74v7.64a1.4,1.4,0,0,1-1.38,1.44Zm5.79-8.45a.1.1,0,0,0-.11-.1H20.83a.1.1,0,0,0-.1.1V9.44h5.09Zm0,4H20.73v2.36a.1.1,0,0,0,.1.11h4.88a.11.11,0,0,0,.11-.11Z"/></g></svg>