<svg xmlns="http://www.w3.org/2000/svg" viewBox="0 0 35 20"><defs><style>.cls-1{fill:#5a5a5a;}</style></defs><title>month_11</title><g id="レイヤー_2" data-name="レイヤー 2"><path class="cls-1" d="M3.52,4.15c0-.7-.21-.89-.94-.89a.92.92,0,0,1-1-.93c0-.84.64-.86,1.26-.91A17.43,17.43,0,0,0,6.28.8c.26-.07.88-.33,1-.33.32,0,.64.26.64.81V16.33c0,.67.21.86.79.89s1.2.05,1.2.91a.88.88,0,0,1-.83.93H2.37a.92.92,0,0,1,0-1.84c.81,0,1.15,0,1.15-.89Z"/><path class="cls-1" d="M13.41,4.15c0-.7-.22-.89-.94-.89a.91.91,0,0,1-1.05-.93c0-.84.64-.86,1.26-.91A17.57,17.57,0,0,0,16.17.8c.26-.07.88-.33,1-.33.32,0,.64.26.64.81V16.33c0,.67.21.86.79.89s1.2.05,1.2.91a.88.88,0,0,1-.84.93H12.25a.92.92,0,0,1,0-1.84c.82,0,1.16,0,1.16-.89Z"/><path class="cls-1" d="M30.46,12.74H25.31a7.24,7.24,0,0,1-.91,2.85.94.94,0,0,1-.83.51A1.15,1.15,0,0,1,22.43,15a1.06,1.06,0,0,1,.12-.47,5.78,5.78,0,0,0,.88-3.11v-5a1.12,1.12,0,0,1,1.22-1.27h6.52a1.12,1.12,0,0,1,1.24,1.27v7.29c0,1.56-.31,2.36-2.27,2.36a13.67,13.67,0,0,1-1.9-.16c-.45-.07-.66-.51-.66-1s.29-1.13.79-1.13h.11A11.29,11.29,0,0,0,29.9,14c.54,0,.56-.2.56-.68Zm0-5.58H25.37V8.1h5.09Zm0,2.78H25.37v1h5.09Z"/></g></svg>